<svg width="24" height="24" viewBox="0 0 24 24" fill="none" xmlns="http://www.w3.org/2000/svg">
<path d="M11.1855 2.18652C16.1535 2.18652 20.1855 6.21852 20.1855 11.1865C20.1855 16.1545 16.1535 20.1865 11.1855 20.1865C6.21755 20.1865 2.18555 16.1545 2.18555 11.1865C2.18555 6.21852 6.21755 2.18652 11.1855 2.18652ZM11.1855 18.1865C15.053 18.1865 18.1855 15.054 18.1855 11.1865C18.1855 7.31902 15.053 4.18652 11.1855 4.18652C7.31805 4.18652 4.18555 7.31902 4.18555 11.1865C4.18555 15.054 7.31805 18.1865 11.1855 18.1865ZM19.6708 18.2576L22.4992 21.086L21.085 22.5002L18.2566 19.6718L19.6708 18.2576Z" fill="#AAAAAA"/>
</svg>
